<?xml version="1.0" encoding="utf-8" standalone="no"?>
<!DOCTYPE svg PUBLIC "-//W3C//DTD SVG 1.1//EN"
  "http://www.w3.org/Graphics/SVG/1.1/DTD/svg11.dtd">
<svg xmlns:xlink="http://www.w3.org/1999/xlink" width="324pt" height="324pt" viewBox="0 0 324 324" xmlns="http://www.w3.org/2000/svg" version="1.1">
 <metadata>
  <rdf:RDF xmlns:dc="http://purl.org/dc/elements/1.1/" xmlns:cc="http://creativecommons.org/ns#" xmlns:rdf="http://www.w3.org/1999/02/22-rdf-syntax-ns#">
   <cc:Work>
    <dc:type rdf:resource="http://purl.org/dc/dcmitype/StillImage"/>
    <dc:date>2024-06-14T22:21:53.690348</dc:date>
    <dc:format>image/svg+xml</dc:format>
    <dc:creator>
     <cc:Agent>
      <dc:title>Matplotlib v3.9.0, https://matplotlib.org/</dc:title>
     </cc:Agent>
    </dc:creator>
   </cc:Work>
  </rdf:RDF>
 </metadata>
 <defs>
  <style type="text/css">*{stroke-linejoin: round; stroke-linecap: butt}</style>
 </defs>
 <g id="figure_1">
  <g id="patch_1">
   <path d="M 0 324 
L 324 324 
L 324 0 
L 0 0 
L 0 324 
z
" style="fill: none"/>
  </g>
  <g id="axes_1">
   <g id="patch_2">
    <path d="M 63.7632 290.8548 
L 268.3368 290.8548 
Q 293.2848 290.8548 293.2848 265.9068 
L 293.2848 61.3332 
Q 293.2848 36.3852 268.3368 36.3852 
L 63.7632 36.3852 
Q 38.8152 36.3852 38.8152 61.3332 
L 38.8152 265.9068 
Q 38.8152 290.8548 63.7632 290.8548 
z
" style="fill: #2ca02c"/>
   </g>
   <g id="patch_3">
    <path d="M 176.585958 142.942018 
C 174.416122 141.836431 172.085725 141.079239 169.680444 140.69828 
C 167.275162 140.317321 164.824838 140.317321 162.419556 140.69828 
L 160.777213 130.328931 
C 164.270598 129.775633 167.829402 129.775633 171.322787 130.328931 
C 174.816173 130.882229 178.200797 131.98196 181.352225 133.587693 
z
" clip-path="url(#pfbb6b34098)" style="fill: #ffffff; stroke: #2ca02c; stroke-width: 2; stroke-linejoin: miter"/>
   </g>
   <g id="patch_4">
    <path d="M 162.419556 140.69828 
C 160.014275 141.079239 157.683878 141.836431 155.514042 142.942018 
C 153.344206 144.047605 151.361852 145.487869 149.63986 147.20986 
L 142.216226 139.786226 
C 144.717214 137.285238 147.596347 135.193426 150.747775 133.587693 
C 153.899203 131.98196 157.283827 130.882229 160.777213 130.328931 
z
" clip-path="url(#pfbb6b34098)" style="fill: #ffffff; stroke: #2ca02c; stroke-width: 2; stroke-linejoin: miter"/>
   </g>
   <g id="patch_5">
    <path d="M 149.63986 147.20986 
C 147.917869 148.931852 146.477605 150.914206 145.372018 153.084042 
C 144.266431 155.253878 143.509239 157.584275 143.12828 159.989556 
L 132.758931 158.347213 
C 133.312229 154.853827 134.41196 151.469203 136.017693 148.317775 
C 137.623426 145.166347 139.715238 142.287214 142.216226 139.786226 
z
" clip-path="url(#pfbb6b34098)" style="fill: #ffffff; stroke: #2ca02c; stroke-width: 2; stroke-linejoin: miter"/>
   </g>
   <g id="patch_6">
    <path d="M 143.12828 159.989556 
C 142.747321 162.394838 142.747321 164.845162 143.12828 167.250444 
C 143.509239 169.655725 144.266431 171.986122 145.372018 174.155958 
L 136.017693 178.922225 
C 134.41196 175.770797 133.312229 172.386173 132.758931 168.892787 
C 132.205633 165.399402 132.205633 161.840598 132.758931 158.347213 
z
" clip-path="url(#pfbb6b34098)" style="fill: #ffffff; stroke: #2ca02c; stroke-width: 2; stroke-linejoin: miter"/>
   </g>
   <g id="patch_7">
    <path d="M 145.372018 174.155958 
C 146.477605 176.325794 147.917869 178.308148 149.63986 180.03014 
C 151.361852 181.752131 153.344206 183.192395 155.514042 184.297982 
L 150.747775 193.652307 
C 147.596347 192.046574 144.717214 189.954762 142.216226 187.453774 
C 139.715238 184.952786 137.623426 182.073653 136.017693 178.922225 
z
" clip-path="url(#pfbb6b34098)" style="fill: #ffffff; stroke: #2ca02c; stroke-width: 2; stroke-linejoin: miter"/>
   </g>
   <g id="patch_8">
    <path d="M 155.514042 184.297982 
C 157.683878 185.403569 160.014275 186.160761 162.419556 186.54172 
C 164.824838 186.922679 167.275162 186.922679 169.680444 186.54172 
L 171.322787 196.911069 
C 167.829402 197.464367 164.270598 197.464367 160.777213 196.911069 
C 157.283827 196.357771 153.899203 195.25804 150.747775 193.652307 
z
" clip-path="url(#pfbb6b34098)" style="fill: #ffffff; stroke: #2ca02c; stroke-width: 2; stroke-linejoin: miter"/>
   </g>
   <g id="patch_9">
    <path d="M 169.680444 186.54172 
C 172.085725 186.160761 174.416122 185.403569 176.585958 184.297982 
C 178.755794 183.192395 180.738148 181.752131 182.46014 180.03014 
L 199.260997 196.830997 
C 195.776014 200.315979 191.764107 203.2308 187.372772 205.468297 
C 182.981438 207.705794 178.265159 209.238206 173.397327 210.009195 
z
" clip-path="url(#pfbb6b34098)" style="fill: #ffffff; stroke: #2ca02c; stroke-width: 2; stroke-linejoin: miter"/>
   </g>
   <g id="patch_10">
    <path d="M 182.46014 180.03014 
C 184.182131 178.308148 185.622395 176.325794 186.727982 174.155958 
C 187.833569 171.986122 188.590761 169.655725 188.97172 167.250444 
L 218.988257 172.004596 
C 218.108423 177.559651 216.359671 182.941758 213.806292 187.953046 
C 211.252913 192.964334 207.926588 197.542628 203.949608 201.519608 
z
" clip-path="url(#pfbb6b34098)" style="fill: #ffffff; stroke: #2ca02c; stroke-width: 2; stroke-linejoin: miter"/>
   </g>
   <g id="patch_11">
    <path d="M 188.97172 167.250444 
C 189.352679 164.845162 189.352679 162.394838 188.97172 159.989556 
C 188.590761 157.584275 187.833569 155.253878 186.727982 153.084042 
L 237.438272 127.245859 
C 241.255178 134.736959 243.869292 142.782377 245.184509 151.086325 
C 246.499725 159.390274 246.499725 167.849726 245.184509 176.153675 
z
" clip-path="url(#pfbb6b34098)" style="fill: #ffffff; stroke: #2ca02c; stroke-width: 2; stroke-linejoin: miter"/>
   </g>
   <g id="patch_12">
    <path d="M 186.727982 153.084042 
C 185.622395 150.914206 184.182131 148.931852 182.46014 147.20986 
C 180.738148 145.487869 178.755794 144.047605 176.585958 142.942018 
L 220.485784 56.783759 
C 231.696602 62.495957 241.938765 69.937323 250.835721 78.834279 
C 259.732677 87.731235 267.174043 97.973398 272.886241 109.184216 
z
" clip-path="url(#pfbb6b34098)" style="fill: #ffffff; stroke: #2ca02c; stroke-width: 2; stroke-linejoin: miter"/>
   </g>
   <g id="text_1">
    <!-- PIL -->
    <g style="fill: #ffffff" transform="translate(174.48582 126.913785) rotate(-81) scale(0.1 -0.1)">
     <defs>
      <path id="ArialRoundedMTBold-50" d="M 2278 1784 
L 1428 1784 
L 1428 488 
Q 1428 209 1297 65 
Q 1166 -78 966 -78 
Q 756 -78 628 64 
Q 500 206 500 481 
L 500 4013 
Q 500 4319 640 4450 
Q 781 4581 1088 4581 
L 2278 4581 
Q 2806 4581 3091 4500 
Q 3372 4422 3576 4240 
Q 3781 4059 3887 3796 
Q 3994 3534 3994 3206 
Q 3994 2506 3562 2145 
Q 3131 1784 2278 1784 
z
M 2053 3884 
L 1428 3884 
L 1428 2484 
L 2053 2484 
Q 2381 2484 2601 2553 
Q 2822 2622 2937 2778 
Q 3053 2934 3053 3188 
Q 3053 3491 2875 3681 
Q 2675 3884 2053 3884 
z
" transform="scale(0.015625)"/>
      <path id="ArialRoundedMTBold-49" d="M 538 488 
L 538 4097 
Q 538 4378 666 4518 
Q 794 4659 997 4659 
Q 1206 4659 1336 4520 
Q 1466 4381 1466 4097 
L 1466 488 
Q 1466 203 1336 62 
Q 1206 -78 997 -78 
Q 797 -78 667 64 
Q 538 206 538 488 
z
" transform="scale(0.015625)"/>
      <path id="ArialRoundedMTBold-4c" d="M 1409 4097 
L 1409 763 
L 3291 763 
Q 3516 763 3636 653 
Q 3756 544 3756 378 
Q 3756 209 3637 104 
Q 3519 0 3291 0 
L 1050 0 
Q 747 0 614 134 
Q 481 269 481 569 
L 481 4097 
Q 481 4378 607 4518 
Q 734 4659 941 4659 
Q 1150 4659 1279 4520 
Q 1409 4381 1409 4097 
z
" transform="scale(0.015625)"/>
     </defs>
     <use xlink:href="#ArialRoundedMTBold-50"/>
     <use xlink:href="#ArialRoundedMTBold-49" x="66.699219"/>
     <use xlink:href="#ArialRoundedMTBold-4c" x="97.998047"/>
    </g>
   </g>
   <g id="text_2">
    <!-- nbformat -->
    <g style="fill: #ffffff" transform="translate(126.715726 92.126762) rotate(-297) scale(0.1 -0.1)">
     <defs>
      <path id="ArialRoundedMTBold-6e" d="M 1216 2919 
L 1216 2816 
Q 1441 3113 1708 3252 
Q 1975 3391 2322 3391 
Q 2659 3391 2925 3244 
Q 3191 3097 3322 2828 
Q 3406 2672 3431 2490 
Q 3456 2309 3456 2028 
L 3456 441 
Q 3456 184 3339 53 
Q 3222 -78 3034 -78 
Q 2844 -78 2725 56 
Q 2606 191 2606 441 
L 2606 1863 
Q 2606 2284 2489 2507 
Q 2372 2731 2022 2731 
Q 1794 2731 1606 2595 
Q 1419 2459 1331 2222 
Q 1269 2031 1269 1509 
L 1269 441 
Q 1269 181 1148 51 
Q 1028 -78 838 -78 
Q 653 -78 534 56 
Q 416 191 416 441 
L 416 2906 
Q 416 3150 522 3270 
Q 628 3391 813 3391 
Q 925 3391 1015 3337 
Q 1106 3284 1161 3178 
Q 1216 3072 1216 2919 
z
" transform="scale(0.015625)"/>
      <path id="ArialRoundedMTBold-62" d="M 1228 4172 
L 1228 2869 
Q 1469 3119 1719 3251 
Q 1969 3384 2338 3384 
Q 2763 3384 3083 3182 
Q 3403 2981 3579 2598 
Q 3756 2216 3756 1691 
Q 3756 1303 3657 979 
Q 3559 656 3371 418 
Q 3184 181 2917 51 
Q 2650 -78 2328 -78 
Q 2131 -78 1957 -31 
Q 1784 16 1662 92 
Q 1541 169 1455 250 
Q 1369 331 1228 494 
L 1228 409 
Q 1228 169 1112 45 
Q 997 -78 819 -78 
Q 638 -78 530 45 
Q 422 169 422 409 
L 422 4134 
Q 422 4394 526 4526 
Q 631 4659 819 4659 
Q 1016 4659 1122 4532 
Q 1228 4406 1228 4172 
z
M 1269 1638 
Q 1269 1128 1501 854 
Q 1734 581 2113 581 
Q 2434 581 2667 861 
Q 2900 1141 2900 1663 
Q 2900 2000 2803 2244 
Q 2706 2488 2528 2620 
Q 2350 2753 2113 2753 
Q 1869 2753 1678 2620 
Q 1488 2488 1378 2236 
Q 1269 1984 1269 1638 
z
" transform="scale(0.015625)"/>
      <path id="ArialRoundedMTBold-66" d="M 372 3316 
L 575 3316 
L 575 3572 
Q 575 3972 676 4208 
Q 778 4444 1020 4551 
Q 1263 4659 1684 4659 
Q 2431 4659 2431 4294 
Q 2431 4175 2353 4090 
Q 2275 4006 2169 4006 
Q 2119 4006 1997 4025 
Q 1875 4044 1791 4044 
Q 1559 4044 1493 3908 
Q 1428 3772 1428 3519 
L 1428 3316 
L 1638 3316 
Q 2125 3316 2125 3022 
Q 2125 2813 1995 2756 
Q 1866 2700 1638 2700 
L 1428 2700 
L 1428 441 
Q 1428 188 1308 55 
Q 1188 -78 997 -78 
Q 816 -78 695 55 
Q 575 188 575 441 
L 575 2700 
L 341 2700 
Q 150 2700 47 2786 
Q -56 2872 -56 3009 
Q -56 3316 372 3316 
z
" transform="scale(0.015625)"/>
      <path id="ArialRoundedMTBold-6f" d="M 3634 1656 
Q 3634 1275 3515 953 
Q 3397 631 3172 400 
Q 2947 169 2634 45 
Q 2322 -78 1931 -78 
Q 1544 -78 1234 47 
Q 925 172 698 405 
Q 472 638 355 955 
Q 238 1272 238 1656 
Q 238 2044 356 2366 
Q 475 2688 697 2916 
Q 919 3144 1234 3267 
Q 1550 3391 1931 3391 
Q 2319 3391 2634 3266 
Q 2950 3141 3175 2909 
Q 3400 2678 3517 2359 
Q 3634 2041 3634 1656 
z
M 2778 1656 
Q 2778 2178 2548 2468 
Q 2319 2759 1931 2759 
Q 1681 2759 1490 2629 
Q 1300 2500 1197 2247 
Q 1094 1994 1094 1656 
Q 1094 1322 1195 1072 
Q 1297 822 1486 689 
Q 1675 556 1931 556 
Q 2319 556 2548 848 
Q 2778 1141 2778 1656 
z
" transform="scale(0.015625)"/>
      <path id="ArialRoundedMTBold-72" d="M 1288 1153 
L 1288 441 
Q 1288 181 1166 51 
Q 1044 -78 856 -78 
Q 672 -78 553 53 
Q 434 184 434 441 
L 434 2816 
Q 434 3391 850 3391 
Q 1063 3391 1156 3256 
Q 1250 3122 1259 2859 
Q 1413 3122 1573 3256 
Q 1734 3391 2003 3391 
Q 2272 3391 2525 3256 
Q 2778 3122 2778 2900 
Q 2778 2744 2670 2642 
Q 2563 2541 2438 2541 
Q 2391 2541 2211 2598 
Q 2031 2656 1894 2656 
Q 1706 2656 1587 2557 
Q 1469 2459 1403 2265 
Q 1338 2072 1313 1805 
Q 1288 1538 1288 1153 
z
" transform="scale(0.015625)"/>
      <path id="ArialRoundedMTBold-6d" d="M 3278 1594 
L 3278 459 
Q 3278 191 3156 56 
Q 3034 -78 2834 -78 
Q 2641 -78 2520 56 
Q 2400 191 2400 459 
L 2400 1819 
Q 2400 2141 2378 2319 
Q 2356 2497 2259 2611 
Q 2163 2725 1953 2725 
Q 1534 2725 1401 2437 
Q 1269 2150 1269 1613 
L 1269 459 
Q 1269 194 1148 58 
Q 1028 -78 831 -78 
Q 638 -78 514 58 
Q 391 194 391 459 
L 391 2900 
Q 391 3141 502 3266 
Q 613 3391 794 3391 
Q 969 3391 1086 3273 
Q 1203 3156 1203 2950 
L 1203 2869 
Q 1425 3134 1678 3259 
Q 1931 3384 2241 3384 
Q 2563 3384 2794 3256 
Q 3025 3128 3175 2869 
Q 3391 3131 3637 3257 
Q 3884 3384 4184 3384 
Q 4534 3384 4787 3246 
Q 5041 3109 5166 2853 
Q 5275 2622 5275 2125 
L 5275 459 
Q 5275 191 5153 56 
Q 5031 -78 4831 -78 
Q 4638 -78 4514 58 
Q 4391 194 4391 459 
L 4391 1894 
Q 4391 2169 4367 2334 
Q 4344 2500 4241 2612 
Q 4138 2725 3928 2725 
Q 3759 2725 3607 2625 
Q 3456 2525 3372 2356 
Q 3278 2141 3278 1594 
z
" transform="scale(0.015625)"/>
      <path id="ArialRoundedMTBold-61" d="M 2597 403 
Q 2288 163 1998 42 
Q 1709 -78 1350 -78 
Q 1022 -78 773 51 
Q 525 181 390 403 
Q 256 625 256 884 
Q 256 1234 478 1481 
Q 700 1728 1088 1813 
Q 1169 1831 1491 1897 
Q 1813 1963 2042 2017 
Q 2272 2072 2541 2150 
Q 2525 2488 2404 2645 
Q 2284 2803 1906 2803 
Q 1581 2803 1417 2712 
Q 1253 2622 1136 2440 
Q 1019 2259 970 2201 
Q 922 2144 763 2144 
Q 619 2144 514 2236 
Q 409 2328 409 2472 
Q 409 2697 568 2909 
Q 728 3122 1065 3259 
Q 1403 3397 1906 3397 
Q 2469 3397 2791 3264 
Q 3113 3131 3245 2843 
Q 3378 2556 3378 2081 
Q 3378 1781 3376 1572 
Q 3375 1363 3372 1106 
Q 3372 866 3451 605 
Q 3531 344 3531 269 
Q 3531 138 3407 30 
Q 3284 -78 3128 -78 
Q 2997 -78 2869 45 
Q 2741 169 2597 403 
z
M 2541 1638 
Q 2353 1569 1995 1492 
Q 1638 1416 1500 1380 
Q 1363 1344 1238 1239 
Q 1113 1134 1113 947 
Q 1113 753 1259 617 
Q 1406 481 1644 481 
Q 1897 481 2111 592 
Q 2325 703 2425 878 
Q 2541 1072 2541 1516 
L 2541 1638 
z
" transform="scale(0.015625)"/>
      <path id="ArialRoundedMTBold-74" d="M 488 3316 
L 581 3316 
L 581 3828 
Q 581 4034 592 4151 
Q 603 4269 653 4353 
Q 703 4441 797 4495 
Q 891 4550 1006 4550 
Q 1169 4550 1300 4428 
Q 1388 4347 1411 4230 
Q 1434 4113 1434 3897 
L 1434 3316 
L 1747 3316 
Q 1928 3316 2023 3230 
Q 2119 3144 2119 3009 
Q 2119 2838 1983 2769 
Q 1847 2700 1594 2700 
L 1434 2700 
L 1434 1131 
Q 1434 931 1448 823 
Q 1463 716 1523 648 
Q 1584 581 1722 581 
Q 1797 581 1925 607 
Q 2053 634 2125 634 
Q 2228 634 2311 551 
Q 2394 469 2394 347 
Q 2394 141 2169 31 
Q 1944 -78 1522 -78 
Q 1122 -78 915 56 
Q 709 191 645 428 
Q 581 666 581 1063 
L 581 2700 
L 469 2700 
Q 284 2700 187 2787 
Q 91 2875 91 3009 
Q 91 3144 192 3230 
Q 294 3316 488 3316 
z
" transform="scale(0.015625)"/>
     </defs>
     <use xlink:href="#ArialRoundedMTBold-6e"/>
     <use xlink:href="#ArialRoundedMTBold-62" x="60.400391"/>
     <use xlink:href="#ArialRoundedMTBold-66" x="122.900391"/>
     <use xlink:href="#ArialRoundedMTBold-6f" x="154.826172"/>
     <use xlink:href="#ArialRoundedMTBold-72" x="215.226562"/>
     <use xlink:href="#ArialRoundedMTBold-6d" x="259.025391"/>
     <use xlink:href="#ArialRoundedMTBold-61" x="347.501953"/>
     <use xlink:href="#ArialRoundedMTBold-74" x="404.425781"/>
    </g>
   </g>
   <g id="text_3">
    <!-- numpy -->
    <g style="fill: #ffffff" transform="translate(102.593812 134.194107) rotate(-333) scale(0.1 -0.1)">
     <defs>
      <path id="ArialRoundedMTBold-75" d="M 2656 403 
L 2656 513 
Q 2503 319 2334 187 
Q 2166 56 1966 -8 
Q 1766 -72 1509 -72 
Q 1200 -72 954 56 
Q 709 184 575 409 
Q 416 681 416 1191 
L 416 2881 
Q 416 3138 531 3264 
Q 647 3391 838 3391 
Q 1031 3391 1150 3262 
Q 1269 3134 1269 2881 
L 1269 1516 
Q 1269 1219 1319 1017 
Q 1369 816 1498 702 
Q 1628 588 1850 588 
Q 2066 588 2256 716 
Q 2447 844 2534 1050 
Q 2606 1231 2606 1844 
L 2606 2881 
Q 2606 3134 2725 3262 
Q 2844 3391 3034 3391 
Q 3225 3391 3340 3264 
Q 3456 3138 3456 2881 
L 3456 409 
Q 3456 166 3345 44 
Q 3234 -78 3059 -78 
Q 2884 -78 2770 48 
Q 2656 175 2656 403 
z
" transform="scale(0.015625)"/>
      <path id="ArialRoundedMTBold-70" d="M 1228 2913 
L 1228 2809 
Q 1469 3106 1728 3245 
Q 1988 3384 2316 3384 
Q 2709 3384 3040 3181 
Q 3372 2978 3564 2587 
Q 3756 2197 3756 1663 
Q 3756 1269 3645 939 
Q 3534 609 3340 386 
Q 3147 163 2883 42 
Q 2619 -78 2316 -78 
Q 1950 -78 1701 69 
Q 1453 216 1228 500 
L 1228 -781 
Q 1228 -1344 819 -1344 
Q 578 -1344 500 -1198 
Q 422 -1053 422 -775 
L 422 2906 
Q 422 3150 528 3270 
Q 634 3391 819 3391 
Q 1000 3391 1114 3267 
Q 1228 3144 1228 2913 
z
M 2900 1672 
Q 2900 2009 2797 2251 
Q 2694 2494 2511 2623 
Q 2328 2753 2106 2753 
Q 1753 2753 1511 2475 
Q 1269 2197 1269 1656 
Q 1269 1147 1509 864 
Q 1750 581 2106 581 
Q 2319 581 2500 704 
Q 2681 828 2790 1075 
Q 2900 1322 2900 1672 
z
" transform="scale(0.015625)"/>
      <path id="ArialRoundedMTBold-79" d="M 1228 -184 
L 1306 6 
L 256 2650 
Q 159 2878 159 2981 
Q 159 3091 215 3184 
Q 272 3278 370 3334 
Q 469 3391 575 3391 
Q 759 3391 853 3273 
Q 947 3156 1019 2938 
L 1741 838 
L 2425 2791 
Q 2506 3028 2572 3162 
Q 2638 3297 2711 3344 
Q 2784 3391 2919 3391 
Q 3016 3391 3105 3339 
Q 3194 3288 3242 3200 
Q 3291 3113 3291 3016 
Q 3278 2956 3250 2847 
Q 3222 2738 3181 2625 
L 2069 -288 
Q 1925 -672 1787 -890 
Q 1650 -1109 1423 -1226 
Q 1197 -1344 813 -1344 
Q 438 -1344 250 -1262 
Q 63 -1181 63 -966 
Q 63 -819 152 -739 
Q 241 -659 416 -659 
Q 484 -659 550 -678 
Q 631 -697 691 -697 
Q 838 -697 922 -653 
Q 1006 -609 1073 -501 
Q 1141 -394 1228 -184 
z
" transform="scale(0.015625)"/>
     </defs>
     <use xlink:href="#ArialRoundedMTBold-6e"/>
     <use xlink:href="#ArialRoundedMTBold-75" x="59.025391"/>
     <use xlink:href="#ArialRoundedMTBold-6d" x="119.425781"/>
     <use xlink:href="#ArialRoundedMTBold-70" x="207.902344"/>
     <use xlink:href="#ArialRoundedMTBold-79" x="269.027344"/>
    </g>
   </g>
   <g id="text_4">
    <!-- pandas -->
    <g style="fill: #ffffff" transform="translate(93.939788 177.663262) rotate(-9) scale(0.1 -0.1)">
     <defs>
      <path id="ArialRoundedMTBold-64" d="M 2778 409 
L 2778 494 
Q 2606 297 2439 173 
Q 2272 50 2076 -14 
Q 1881 -78 1650 -78 
Q 1344 -78 1083 51 
Q 822 181 631 422 
Q 441 663 342 988 
Q 244 1313 244 1691 
Q 244 2491 634 2937 
Q 1025 3384 1663 3384 
Q 2031 3384 2284 3257 
Q 2538 3131 2778 2869 
L 2778 4128 
Q 2778 4391 2883 4525 
Q 2988 4659 3181 4659 
Q 3375 4659 3479 4536 
Q 3584 4413 3584 4172 
L 3584 409 
Q 3584 166 3471 44 
Q 3359 -78 3181 -78 
Q 3006 -78 2892 48 
Q 2778 175 2778 409 
z
M 1100 1663 
Q 1100 1316 1208 1072 
Q 1316 828 1503 704 
Q 1691 581 1913 581 
Q 2138 581 2323 698 
Q 2509 816 2620 1058 
Q 2731 1300 2731 1663 
Q 2731 2003 2620 2248 
Q 2509 2494 2320 2623 
Q 2131 2753 1906 2753 
Q 1672 2753 1487 2620 
Q 1303 2488 1201 2239 
Q 1100 1991 1100 1663 
z
" transform="scale(0.015625)"/>
      <path id="ArialRoundedMTBold-73" d="M 3188 1038 
Q 3188 684 3016 432 
Q 2844 181 2508 51 
Q 2172 -78 1691 -78 
Q 1231 -78 903 62 
Q 575 203 419 414 
Q 263 625 263 838 
Q 263 978 363 1078 
Q 463 1178 616 1178 
Q 750 1178 822 1112 
Q 894 1047 959 928 
Q 1091 700 1273 587 
Q 1456 475 1772 475 
Q 2028 475 2192 589 
Q 2356 703 2356 850 
Q 2356 1075 2186 1178 
Q 2016 1281 1625 1375 
Q 1184 1484 907 1604 
Q 631 1725 465 1922 
Q 300 2119 300 2406 
Q 300 2663 453 2891 
Q 606 3119 904 3255 
Q 1203 3391 1625 3391 
Q 1956 3391 2220 3322 
Q 2484 3253 2661 3137 
Q 2838 3022 2930 2881 
Q 3022 2741 3022 2606 
Q 3022 2459 2923 2365 
Q 2825 2272 2644 2272 
Q 2513 2272 2420 2347 
Q 2328 2422 2209 2572 
Q 2113 2697 1981 2772 
Q 1850 2847 1625 2847 
Q 1394 2847 1241 2748 
Q 1088 2650 1088 2503 
Q 1088 2369 1200 2283 
Q 1313 2197 1503 2140 
Q 1694 2084 2028 2003 
Q 2425 1906 2676 1772 
Q 2928 1638 3058 1455 
Q 3188 1272 3188 1038 
z
" transform="scale(0.015625)"/>
     </defs>
     <use xlink:href="#ArialRoundedMTBold-70"/>
     <use xlink:href="#ArialRoundedMTBold-61" x="62.5"/>
     <use xlink:href="#ArialRoundedMTBold-6e" x="121.923828"/>
     <use xlink:href="#ArialRoundedMTBold-64" x="182.324219"/>
     <use xlink:href="#ArialRoundedMTBold-61" x="244.824219"/>
     <use xlink:href="#ArialRoundedMTBold-73" x="304.248047"/>
    </g>
   </g>
   <g id="text_5">
    <!-- re -->
    <g style="fill: #ffffff" transform="translate(134.190608 199.141984) rotate(-45) scale(0.1 -0.1)">
     <defs>
      <path id="ArialRoundedMTBold-65" d="M 2822 1447 
L 1153 1447 
Q 1156 1156 1270 934 
Q 1384 713 1573 600 
Q 1763 488 1991 488 
Q 2144 488 2270 523 
Q 2397 559 2515 636 
Q 2634 713 2734 800 
Q 2834 888 2994 1038 
Q 3059 1094 3181 1094 
Q 3313 1094 3394 1022 
Q 3475 950 3475 819 
Q 3475 703 3384 548 
Q 3294 394 3111 251 
Q 2928 109 2651 15 
Q 2375 -78 2016 -78 
Q 1194 -78 737 390 
Q 281 859 281 1663 
Q 281 2041 393 2364 
Q 506 2688 722 2919 
Q 938 3150 1253 3273 
Q 1569 3397 1953 3397 
Q 2453 3397 2811 3186 
Q 3169 2975 3347 2640 
Q 3525 2306 3525 1959 
Q 3525 1638 3340 1542 
Q 3156 1447 2822 1447 
z
M 1153 1931 
L 2700 1931 
Q 2669 2369 2464 2586 
Q 2259 2803 1925 2803 
Q 1606 2803 1401 2583 
Q 1197 2363 1153 1931 
z
" transform="scale(0.015625)"/>
     </defs>
     <use xlink:href="#ArialRoundedMTBold-72"/>
     <use xlink:href="#ArialRoundedMTBold-65" x="41.298828"/>
    </g>
   </g>
   <g id="text_6">
    <!-- wordcloud -->
    <g style="fill: #ffffff" transform="translate(154.731163 251.639779) rotate(-81) scale(0.1 -0.1)">
     <defs>
      <path id="ArialRoundedMTBold-77" d="M 972 2859 
L 1528 953 
L 2034 2725 
Q 2116 3003 2155 3104 
Q 2194 3206 2301 3298 
Q 2409 3391 2597 3391 
Q 2788 3391 2895 3298 
Q 3003 3206 3047 3098 
Q 3091 2991 3169 2725 
L 3675 953 
L 4238 2859 
Q 4294 3066 4328 3158 
Q 4363 3250 4444 3320 
Q 4525 3391 4678 3391 
Q 4831 3391 4943 3284 
Q 5056 3178 5056 3034 
Q 5056 2903 4959 2638 
L 4263 594 
Q 4172 334 4122 218 
Q 4072 103 3964 12 
Q 3856 -78 3669 -78 
Q 3475 -78 3364 19 
Q 3253 116 3200 256 
Q 3147 397 3084 622 
L 2597 2284 
L 2125 622 
Q 2031 275 1922 98 
Q 1813 -78 1538 -78 
Q 1397 -78 1298 -23 
Q 1200 31 1134 132 
Q 1069 234 1019 373 
Q 969 513 941 594 
L 250 2638 
Q 147 2925 147 3034 
Q 147 3172 256 3281 
Q 366 3391 525 3391 
Q 738 3391 813 3270 
Q 888 3150 972 2859 
z
" transform="scale(0.015625)"/>
      <path id="ArialRoundedMTBold-63" d="M 3500 978 
Q 3500 819 3404 637 
Q 3309 456 3114 292 
Q 2919 128 2622 28 
Q 2325 -72 1953 -72 
Q 1163 -72 719 389 
Q 275 850 275 1625 
Q 275 2150 478 2553 
Q 681 2956 1065 3176 
Q 1450 3397 1984 3397 
Q 2316 3397 2592 3300 
Q 2869 3203 3061 3050 
Q 3253 2897 3354 2723 
Q 3456 2550 3456 2400 
Q 3456 2247 3342 2140 
Q 3228 2034 3066 2034 
Q 2959 2034 2889 2089 
Q 2819 2144 2731 2266 
Q 2575 2503 2404 2622 
Q 2234 2741 1972 2741 
Q 1594 2741 1362 2445 
Q 1131 2150 1131 1638 
Q 1131 1397 1190 1195 
Q 1250 994 1362 851 
Q 1475 709 1634 636 
Q 1794 563 1984 563 
Q 2241 563 2423 681 
Q 2606 800 2747 1044 
Q 2825 1188 2915 1269 
Q 3006 1350 3138 1350 
Q 3294 1350 3397 1231 
Q 3500 1113 3500 978 
z
" transform="scale(0.015625)"/>
      <path id="ArialRoundedMTBold-6c" d="M 441 441 
L 441 4141 
Q 441 4397 555 4528 
Q 669 4659 863 4659 
Q 1056 4659 1175 4529 
Q 1294 4400 1294 4141 
L 1294 441 
Q 1294 181 1173 51 
Q 1053 -78 863 -78 
Q 675 -78 558 56 
Q 441 191 441 441 
z
" transform="scale(0.015625)"/>
     </defs>
     <use xlink:href="#ArialRoundedMTBold-77"/>
     <use xlink:href="#ArialRoundedMTBold-6f" x="79.923828"/>
     <use xlink:href="#ArialRoundedMTBold-72" x="140.324219"/>
     <use xlink:href="#ArialRoundedMTBold-64" x="181.498047"/>
     <use xlink:href="#ArialRoundedMTBold-63" x="243.998047"/>
     <use xlink:href="#ArialRoundedMTBold-6c" x="300.921875"/>
     <use xlink:href="#ArialRoundedMTBold-6f" x="328.021484"/>
     <use xlink:href="#ArialRoundedMTBold-75" x="388.421875"/>
     <use xlink:href="#ArialRoundedMTBold-64" x="448.822266"/>
    </g>
   </g>
   <g id="text_7">
    <!-- os -->
    <g style="fill: #ffffff" transform="translate(186.821198 210.090392) rotate(-297) scale(0.1 -0.1)">
     <use xlink:href="#ArialRoundedMTBold-6f"/>
     <use xlink:href="#ArialRoundedMTBold-73" x="60.400391"/>
    </g>
   </g>
   <g id="text_8">
    <!-- ScanPyImports -->
    <g style="fill: #ffffff" transform="translate(216.076858 192.016607) rotate(-333) scale(0.1 -0.1)">
     <defs>
      <path id="ArialRoundedMTBold-53" d="M 3981 1375 
Q 3981 959 3767 628 
Q 3553 297 3140 109 
Q 2728 -78 2163 -78 
Q 1484 -78 1044 178 
Q 731 363 536 670 
Q 341 978 341 1269 
Q 341 1438 458 1558 
Q 575 1678 756 1678 
Q 903 1678 1004 1584 
Q 1106 1491 1178 1306 
Q 1266 1088 1367 941 
Q 1469 794 1653 698 
Q 1838 603 2138 603 
Q 2550 603 2808 795 
Q 3066 988 3066 1275 
Q 3066 1503 2927 1645 
Q 2788 1788 2567 1863 
Q 2347 1938 1978 2022 
Q 1484 2138 1151 2292 
Q 819 2447 623 2714 
Q 428 2981 428 3378 
Q 428 3756 634 4050 
Q 841 4344 1231 4501 
Q 1622 4659 2150 4659 
Q 2572 4659 2880 4554 
Q 3188 4450 3391 4276 
Q 3594 4103 3687 3912 
Q 3781 3722 3781 3541 
Q 3781 3375 3664 3242 
Q 3547 3109 3372 3109 
Q 3213 3109 3130 3189 
Q 3047 3269 2950 3450 
Q 2825 3709 2650 3854 
Q 2475 4000 2088 4000 
Q 1728 4000 1508 3842 
Q 1288 3684 1288 3463 
Q 1288 3325 1363 3225 
Q 1438 3125 1569 3053 
Q 1700 2981 1834 2940 
Q 1969 2900 2278 2822 
Q 2666 2731 2980 2622 
Q 3294 2513 3514 2356 
Q 3734 2200 3857 1961 
Q 3981 1722 3981 1375 
z
" transform="scale(0.015625)"/>
     </defs>
     <use xlink:href="#ArialRoundedMTBold-53"/>
     <use xlink:href="#ArialRoundedMTBold-63" x="66.699219"/>
     <use xlink:href="#ArialRoundedMTBold-61" x="126.123047"/>
     <use xlink:href="#ArialRoundedMTBold-6e" x="185.546875"/>
     <use xlink:href="#ArialRoundedMTBold-50" x="245.947266"/>
     <use xlink:href="#ArialRoundedMTBold-79" x="312.646484"/>
     <use xlink:href="#ArialRoundedMTBold-49" x="366.845703"/>
     <use xlink:href="#ArialRoundedMTBold-6d" x="398.144531"/>
     <use xlink:href="#ArialRoundedMTBold-70" x="486.621094"/>
     <use xlink:href="#ArialRoundedMTBold-6f" x="549.121094"/>
     <use xlink:href="#ArialRoundedMTBold-72" x="609.521484"/>
     <use xlink:href="#ArialRoundedMTBold-74" x="654.570312"/>
     <use xlink:href="#ArialRoundedMTBold-73" x="689.970703"/>
    </g>
   </g>
   <g id="text_9">
    <!-- matplotlib -->
    <g style="fill: #2ca02c" transform="translate(194.073276 161.803676) rotate(-9) scale(0.1 -0.1)">
     <defs>
      <path id="ArialRoundedMTBold-69" d="M 1294 2906 
L 1294 441 
Q 1294 184 1172 53 
Q 1050 -78 863 -78 
Q 675 -78 558 56 
Q 441 191 441 441 
L 441 2881 
Q 441 3134 558 3262 
Q 675 3391 863 3391 
Q 1050 3391 1172 3262 
Q 1294 3134 1294 2906 
z
M 872 3788 
Q 694 3788 567 3897 
Q 441 4006 441 4206 
Q 441 4388 570 4505 
Q 700 4622 872 4622 
Q 1038 4622 1166 4515 
Q 1294 4409 1294 4206 
Q 1294 4009 1169 3898 
Q 1044 3788 872 3788 
z
" transform="scale(0.015625)"/>
     </defs>
     <use xlink:href="#ArialRoundedMTBold-6d"/>
     <use xlink:href="#ArialRoundedMTBold-61" x="88.476562"/>
     <use xlink:href="#ArialRoundedMTBold-74" x="145.400391"/>
     <use xlink:href="#ArialRoundedMTBold-70" x="180.800781"/>
     <use xlink:href="#ArialRoundedMTBold-6c" x="243.300781"/>
     <use xlink:href="#ArialRoundedMTBold-6f" x="270.400391"/>
     <use xlink:href="#ArialRoundedMTBold-74" x="330.800781"/>
     <use xlink:href="#ArialRoundedMTBold-6c" x="366.201172"/>
     <use xlink:href="#ArialRoundedMTBold-69" x="393.300781"/>
     <use xlink:href="#ArialRoundedMTBold-62" x="420.400391"/>
    </g>
   </g>
   <g id="text_10">
    <!-- typing -->
    <g style="fill: #2ca02c" transform="translate(228.569635 104.762957) rotate(-45) scale(0.1 -0.1)">
     <defs>
      <path id="ArialRoundedMTBold-67" d="M 3578 2766 
L 3578 288 
Q 3578 -138 3487 -444 
Q 3397 -750 3197 -950 
Q 2997 -1150 2673 -1247 
Q 2350 -1344 1869 -1344 
Q 1428 -1344 1081 -1220 
Q 734 -1097 546 -901 
Q 359 -706 359 -500 
Q 359 -344 465 -245 
Q 572 -147 722 -147 
Q 909 -147 1050 -313 
Q 1119 -397 1192 -483 
Q 1266 -569 1355 -630 
Q 1444 -691 1569 -720 
Q 1694 -750 1856 -750 
Q 2188 -750 2370 -658 
Q 2553 -566 2626 -400 
Q 2700 -234 2712 -45 
Q 2725 144 2731 563 
Q 2534 288 2276 144 
Q 2019 0 1663 0 
Q 1234 0 914 219 
Q 594 438 422 831 
Q 250 1225 250 1741 
Q 250 2125 354 2434 
Q 459 2744 653 2956 
Q 847 3169 1100 3276 
Q 1353 3384 1656 3384 
Q 2019 3384 2284 3245 
Q 2550 3106 2778 2809 
L 2778 2925 
Q 2778 3147 2887 3269 
Q 2997 3391 3169 3391 
Q 3416 3391 3497 3230 
Q 3578 3069 3578 2766 
z
M 1106 1684 
Q 1106 1166 1332 900 
Q 1559 634 1919 634 
Q 2131 634 2320 748 
Q 2509 863 2628 1092 
Q 2747 1322 2747 1650 
Q 2747 2172 2517 2462 
Q 2288 2753 1913 2753 
Q 1547 2753 1326 2475 
Q 1106 2197 1106 1684 
z
" transform="scale(0.015625)"/>
     </defs>
     <use xlink:href="#ArialRoundedMTBold-74"/>
     <use xlink:href="#ArialRoundedMTBold-79" x="35.400391"/>
     <use xlink:href="#ArialRoundedMTBold-70" x="89.599609"/>
     <use xlink:href="#ArialRoundedMTBold-69" x="152.099609"/>
     <use xlink:href="#ArialRoundedMTBold-6e" x="179.199219"/>
     <use xlink:href="#ArialRoundedMTBold-67" x="239.599609"/>
    </g>
   </g>
  </g>
 </g>
 <defs>
  <clipPath id="pfbb6b34098">
   <path d="M 290.79 163.62 
C 290.79 147.239293 287.563358 131.017868 281.294733 115.884069 
C 275.026108 100.750269 265.837409 86.998409 254.2545 75.4155 
C 242.671591 63.832591 228.919731 54.643892 213.785931 48.375267 
C 198.652132 42.106642 182.430707 38.88 166.05 38.88 
C 149.669293 38.88 133.447868 42.106642 118.314069 48.375267 
C 103.180269 54.643892 89.428409 63.832591 77.8455 75.4155 
C 66.262591 86.998409 57.073892 100.750269 50.805267 115.884069 
C 44.536642 131.017868 41.31 147.239293 41.31 163.62 
C 41.31 180.000707 44.536642 196.222132 50.805267 211.355931 
C 57.073892 226.489731 66.262591 240.241591 77.8455 251.8245 
C 89.428409 263.407409 103.180269 272.596108 118.314069 278.864733 
C 133.447868 285.133358 149.669293 288.36 166.05 288.36 
C 182.430707 288.36 198.652132 285.133358 213.785931 278.864733 
C 228.919731 272.596108 242.671591 263.407409 254.2545 251.8245 
C 265.837409 240.241591 275.026108 226.489731 281.294733 211.355931 
C 287.563358 196.222132 290.79 180.000707 290.79 163.62 
M 166.05 163.62 
C 166.05 163.62 166.05 163.62 166.05 163.62 
C 166.05 163.62 166.05 163.62 166.05 163.62 
C 166.05 163.62 166.05 163.62 166.05 163.62 
C 166.05 163.62 166.05 163.62 166.05 163.62 
C 166.05 163.62 166.05 163.62 166.05 163.62 
C 166.05 163.62 166.05 163.62 166.05 163.62 
C 166.05 163.62 166.05 163.62 166.05 163.62 
C 166.05 163.62 166.05 163.62 166.05 163.62 
C 166.05 163.62 166.05 163.62 166.05 163.62 
C 166.05 163.62 166.05 163.62 166.05 163.62 
C 166.05 163.62 166.05 163.62 166.05 163.62 
C 166.05 163.62 166.05 163.62 166.05 163.62 
C 166.05 163.62 166.05 163.62 166.05 163.62 
C 166.05 163.62 166.05 163.62 166.05 163.62 
C 166.05 163.62 166.05 163.62 166.05 163.62 
C 166.05 163.62 166.05 163.62 166.05 163.62 
z
"/>
  </clipPath>
 </defs>
</svg>
